<svg xmlns="http://www.w3.org/2000/svg" xmlns:xlink="http://www.w3.org/1999/xlink">

	<symbol id="arrow-slider" viewBox="0 0 13 15">
		<path d="M13 7.5L.25.139V14.86L13 7.5z" />
	</symbol>

	<symbol id="online1" viewBox="0 0 29 29">
		<path d="M18.625 20.828l2.302-10.856c.094-.459.04-.788-.164-.986-.204-.199-.473-.235-.807-.11L6.422 14.092c-.302.115-.509.246-.618.392-.11.146-.123.284-.04.415.084.13.251.232.502.305l3.461 1.081 8.036-5.06c.22-.146.387-.177.502-.093.073.052.052.13-.063.235l-6.5 5.874-.251 3.571c.24 0 .475-.115.704-.345l1.692-1.629 3.509 2.585c.668.376 1.091.178 1.269-.595zm9.445-6.438c0 1.9-.37 3.717-1.112 5.451-.741 1.733-1.738 3.227-2.992 4.48-1.253 1.253-2.746 2.25-4.48 2.992a13.72 13.72 0 01-5.45 1.112c-1.901 0-3.718-.37-5.452-1.112-1.733-.742-3.227-1.739-4.48-2.992-1.253-1.253-2.25-2.747-2.992-4.48A13.72 13.72 0 010 14.39c0-1.9.37-3.718 1.112-5.451.742-1.734 1.739-3.227 2.992-4.48 1.253-1.253 2.747-2.25 4.48-2.992A13.72 13.72 0 0114.035.355c1.9 0 3.718.37 5.451 1.112 1.734.741 3.227 1.739 4.48 2.992 1.253 1.253 2.25 2.746 2.992 4.48a13.72 13.72 0 011.112 5.45z"/>
	</symbol>

	<symbol id="online2" viewBox="0 0 30 29">
		<path d="M14.89 26.0592C17.9577 26.0592 20.8998 24.8785 23.0689 22.7769C25.2381 20.6753 26.4568 17.8248 26.4568 14.8527C26.4568 11.8805 25.2381 9.03008 23.0689 6.92844C20.8998 4.82681 17.9577 3.64612 14.89 3.64612C11.8224 3.64612 8.88032 4.82681 6.71113 6.92844C4.54195 9.03008 3.32332 11.8805 3.32332 14.8527C3.32332 17.8248 4.54195 20.6753 6.71113 22.7769C8.88032 24.8785 11.8224 26.0592 14.89 26.0592V26.0592ZM14.89 28.8609C6.90467 28.8609 0.431641 22.5894 0.431641 14.8527C0.431641 7.11595 6.90467 0.844482 14.89 0.844482C22.8754 0.844482 29.3484 7.11595 29.3484 14.8527C29.3484 22.5894 22.8754 28.8609 14.89 28.8609Z"/>
		<path d="M15.5843 8.97898C15.6421 8.98319 15.7 8.98739 15.7448 8.99439C18.9979 9.49588 20.4958 11.0368 20.9108 14.3175C20.918 14.3735 20.918 14.4408 20.9195 14.5136C20.9238 14.77 20.9325 15.3023 21.505 15.3135H21.5224C21.601 15.3175 21.6796 15.3053 21.7529 15.2775C21.8262 15.2497 21.8925 15.207 21.9475 15.1524C22.1253 14.9661 22.1137 14.6901 22.1036 14.466C22.1007 14.4128 22.0978 14.3609 22.0993 14.3161C22.1398 10.9611 19.2365 7.91856 15.8851 7.8065L15.8446 7.8079C15.8316 7.80974 15.8186 7.81068 15.8055 7.8107C15.7723 7.8107 15.7303 7.8079 15.687 7.8051C15.6293 7.79999 15.5714 7.79718 15.5135 7.79669C14.98 7.79669 14.8787 8.17491 14.8657 8.40185C14.8368 8.92435 15.3414 8.96217 15.5843 8.97898ZM20.7532 18.5564C20.6836 18.5035 20.6146 18.4498 20.5464 18.3953C20.1908 18.1095 19.812 17.8462 19.4476 17.5912C19.3714 17.5381 19.2952 17.4849 19.2192 17.4315C18.7507 17.1037 18.33 16.9426 17.9324 16.9426C17.3974 16.9426 16.9304 17.2396 16.5444 17.8238C16.3737 18.0815 16.1655 18.2076 15.9111 18.2076C15.7334 18.2014 15.5593 18.1579 15.4007 18.0801C13.8898 17.3937 12.8098 16.3431 12.1924 14.9563C11.8945 14.2839 11.99 13.8468 12.5162 13.4896C12.8141 13.2879 13.3693 12.9111 13.3303 12.1897C13.2869 11.3702 11.4781 8.90474 10.7162 8.62458C10.3911 8.50573 10.0327 8.50473 9.70698 8.62177C8.83225 8.91595 8.20331 9.43425 7.88956 10.1164C7.58593 10.7776 7.60039 11.5523 7.93004 12.3592C8.87996 14.6929 10.2145 16.7269 11.9003 18.4051C13.5486 20.0483 15.5756 21.393 17.9237 22.4044C18.1348 22.4955 18.3574 22.5445 18.5194 22.5809L18.6567 22.6146C18.6755 22.6198 18.695 22.6226 18.7146 22.623H18.7334C19.838 22.623 21.1638 21.6144 21.5715 20.4629C21.9287 19.4543 21.2766 18.957 20.7532 18.5578V18.5564ZM16.073 11.6447C15.8851 11.6489 15.4903 11.6587 15.3515 12.0594C15.2879 12.2471 15.2951 12.4096 15.3747 12.5427C15.4918 12.7388 15.7173 12.799 15.9212 12.8312C16.6615 12.9503 17.0432 13.3607 17.1184 14.12C17.1545 14.4758 17.3931 14.7223 17.6996 14.7223C17.7228 14.7228 17.7459 14.7219 17.769 14.7195C18.1377 14.6747 18.3155 14.4044 18.2996 13.9141C18.3054 13.4014 18.0379 12.8214 17.5825 12.3592C17.1256 11.8941 16.5747 11.6321 16.073 11.6447Z"/>
	</symbol>

	<symbol id="online3" viewBox="0 0 30 30">
		<path fill-rule="evenodd" d="M22.065 17.907c-.365-.182-2.157-1.058-2.49-1.18-.334-.12-.577-.18-.82.183-.243.361-.941 1.179-1.153 1.42-.214.244-.426.273-.79.092-.364-.183-1.54-.565-2.931-1.8-1.083-.962-1.815-2.15-2.027-2.513-.212-.362-.023-.559.16-.74.164-.162.363-.423.546-.634.183-.212.243-.364.364-.607.123-.241.062-.453-.03-.634-.091-.182-.82-1.968-1.124-2.694-.295-.706-.596-.61-.819-.622-.213-.01-.456-.012-.699-.012-.243 0-.637.09-.971.454-.335.362-1.275 1.24-1.275 3.025 0 1.784 1.304 3.509 1.487 3.752.183.241 2.57 3.905 6.225 5.476.87.373 1.549.597 2.077.763.873.277 1.668.238 2.296.144.699-.104 2.156-.878 2.46-1.725.303-.847.303-1.573.212-1.724-.09-.152-.333-.242-.699-.424h.001zm-6.649 9.035h-.005c-2.17 0-4.302-.58-6.17-1.682L8.799 25 4.21 26.197l1.225-4.453-.288-.456a11.992 11.992 0 01-1.853-6.42c.003-6.651 5.44-12.062 12.127-12.062 3.238 0 6.281 1.257 8.57 3.536a11.988 11.988 0 012.632 3.914c.608 1.465.92 3.036.914 4.621-.002 6.651-5.44 12.064-12.12 12.064zm10.316-22.33a14.494 14.494 0 00-4.73-3.158 14.55 14.55 0 00-5.587-1.1C7.378.355.835 6.867.832 14.869a14.426 14.426 0 001.946 7.256L.709 29.645l7.73-2.018a14.625 14.625 0 006.971 1.767h.006c8.038 0 14.581-6.511 14.584-14.515a14.368 14.368 0 00-1.101-5.559 14.422 14.422 0 00-3.167-4.708z" clip-rule="evenodd"/>
	</symbol>

	<symbol id="contact-1" viewBox="0 0 16 22">
		<path d="M8 22C8 22 16 14.1818 16 8.25C16 6.06196 15.1571 3.96354 13.6569 2.41637C12.1566 0.869194 10.1217 0 8 0C5.87827 0 3.84344 0.869194 2.34315 2.41637C0.842855 3.96354 3.16163e-08 6.06196 0 8.25C0 14.1818 8 22 8 22ZM8 12.375C6.93913 12.375 5.92172 11.9404 5.17157 11.1668C4.42143 10.3932 4 9.34402 4 8.25C4 7.15598 4.42143 6.10677 5.17157 5.33318C5.92172 4.5596 6.93913 4.125 8 4.125C9.06087 4.125 10.0783 4.5596 10.8284 5.33318C11.5786 6.10677 12 7.15598 12 8.25C12 9.34402 11.5786 10.3932 10.8284 11.1668C10.0783 11.9404 9.06087 12.375 8 12.375Z" />
	</symbol>

	<symbol id="contact-2" viewBox="0 0 19 19">
		<path d="M12.6675 13.5032L14.3036 11.8664C14.5239 11.6487 14.8027 11.4997 15.1061 11.4374C15.4095 11.3752 15.7244 11.4024 16.0127 11.5157L18.0067 12.3121C18.2979 12.4304 18.5477 12.6323 18.7245 12.8924C18.9013 13.1525 18.9971 13.459 19 13.7735V17.427C18.9983 17.6409 18.9534 17.8523 18.8678 18.0484C18.7823 18.2445 18.6581 18.4212 18.5025 18.568C18.3469 18.7148 18.1632 18.8285 17.9625 18.9024C17.7618 18.9763 17.5483 19.0088 17.3347 18.998C3.36224 18.1284 0.542915 6.29127 0.00972701 1.76099C-0.015024 1.53852 0.00759034 1.31333 0.0760821 1.10024C0.144574 0.887139 0.257391 0.690964 0.407111 0.524618C0.556831 0.358272 0.740062 0.225524 0.944748 0.135108C1.14943 0.0446917 1.37094 -0.00134385 1.59468 2.98626e-05H5.12249C5.4373 0.000962066 5.74463 0.0960917 6.00495 0.273183C6.26528 0.450274 6.46669 0.701229 6.58328 0.993768L7.37941 2.98855C7.49646 3.27576 7.52632 3.59111 7.46527 3.8952C7.40422 4.19929 7.25495 4.47864 7.03613 4.69836L5.40004 6.33511C5.40004 6.33511 6.34225 12.714 12.6675 13.5032Z"/>
	</symbol>

	<symbol id="contact-3" viewBox="0 0 19 15">
		<path d="M19 3.89192V12.1154C19 12.8804 18.6872 13.6141 18.1305 14.1551C17.5737 14.6961 16.8186 15 16.0312 15H2.96875C2.18139 15 1.42628 14.6961 0.869527 14.1551C0.312778 13.6141 0 12.8804 0 12.1154V3.89192L9.19838 9.15115C9.28976 9.20352 9.39391 9.23114 9.5 9.23114C9.60609 9.23114 9.71024 9.20352 9.80162 9.15115L19 3.89192ZM16.0312 3.57146e-08C16.7617 -0.000111595 17.4666 0.261469 18.0111 0.7347C18.5555 1.20793 18.9013 1.85959 18.9822 2.565L9.5 7.98462L0.0178126 2.565C0.0987505 1.85959 0.44451 1.20793 0.988944 0.7347C1.53338 0.261469 2.23826 -0.000111595 2.96875 3.57146e-08H16.0312Z" />
	</symbol>

	<symbol id="social-1" viewBox="0 0 36 36">
		<circle cx="17.8882" cy="17.8902" r="13.2222" fill="white"/>
		<path d="M23.7387 26.0946L26.6736 12.2587C26.7934 11.673 26.7235 11.2538 26.464 11.0009C26.2044 10.748 25.8617 10.7014 25.4358 10.8611L8.18576 17.5095C7.79977 17.656 7.53689 17.8223 7.39714 18.0087C7.25738 18.195 7.24074 18.3714 7.34722 18.5378C7.4537 18.7041 7.66667 18.8339 7.98611 18.9271L12.3984 20.3047L22.6406 13.8559C22.9201 13.6696 23.1331 13.6296 23.2795 13.7361C23.3727 13.8027 23.3461 13.9025 23.1997 14.0356L14.9141 21.5226L14.5946 26.0747C14.9008 26.0747 15.2002 25.9282 15.4931 25.6354L17.6493 23.559L22.1215 26.8533C22.9734 27.3325 23.5124 27.0796 23.7387 26.0946ZM35.7778 17.8889C35.7778 20.3113 35.3053 22.6273 34.3602 24.8368C33.4152 27.0463 32.1441 28.9497 30.5469 30.5469C28.9497 32.1441 27.0463 33.4152 24.8368 34.3602C22.6273 35.3053 20.3113 35.7778 17.8889 35.7778C15.4664 35.7778 13.1505 35.3053 10.941 34.3602C8.73148 33.4152 6.82812 32.1441 5.2309 30.5469C3.63368 28.9497 2.36256 27.0463 1.41753 24.8368C0.472512 22.6273 0 20.3113 0 17.8889C0 15.4664 0.472512 13.1505 1.41753 10.941C2.36256 8.73148 3.63368 6.82812 5.2309 5.2309C6.82812 3.63368 8.73148 2.36256 10.941 1.41753C13.1505 0.472512 15.4664 0 17.8889 0C20.3113 0 22.6273 0.472512 24.8368 1.41753C27.0463 2.36256 28.9497 3.63368 30.5469 5.2309C32.1441 6.82812 33.4152 8.73148 34.3602 10.941C35.3053 13.1505 35.7778 15.4664 35.7778 17.8889Z" fill="#2CA5E0"/>
	</symbol>

	<symbol id="social-2" viewBox="0 0 38 38">
		<path d="M36.4449 18.6658C36.4449 28.116 28.784 35.7769 19.3338 35.7769C9.88356 35.7769 2.22266 28.116 2.22266 18.6658C2.22266 9.21559 9.88356 1.55469 19.3338 1.55469C28.784 1.55469 36.4449 9.21559 36.4449 18.6658Z" fill="white"/>
		<path d="M3.77821 34.9991C4.55599 31.3695 6.11154 23.9547 6.11154 23.3325L12.3338 32.6658L3.77821 34.9991Z" fill="white"/>
		<path fill-rule="evenodd" clip-rule="evenodd" d="M27.8864 22.372C27.4206 22.1402 25.137 21.0234 24.7118 20.8678C24.2867 20.7138 23.9772 20.6376 23.6662 21.1011C23.3567 21.5616 22.4673 22.6038 22.1969 22.9118C21.9249 23.2214 21.6545 23.2587 21.1903 23.0285C20.7261 22.7951 19.2287 22.3082 17.4546 20.734C16.0745 19.5083 15.1413 17.9947 14.8709 17.5311C14.6005 17.0691 14.8412 16.8187 15.0741 16.5885C15.2836 16.3816 15.5384 16.0487 15.7712 15.7796C16.0041 15.5089 16.0807 15.316 16.2355 15.0065C16.3918 14.6985 16.3136 14.4294 16.1964 14.1976C16.0807 13.9658 15.1523 11.69 14.7646 10.7645C14.388 9.86382 14.005 9.98671 13.7205 9.97116C13.4486 9.95871 13.1391 9.9556 12.8296 9.9556C12.5201 9.9556 12.0168 10.0707 11.5917 10.5343C11.165 10.9963 9.96611 12.1147 9.96611 14.3905C9.96611 16.6647 11.6292 18.8627 11.8621 19.1723C12.095 19.4803 15.1367 24.15 19.7961 26.152C20.9058 26.628 21.7702 26.9127 22.4439 27.1242C23.5568 27.4774 24.5696 27.4276 25.3699 27.3078C26.2608 27.1756 28.1177 26.1894 28.5053 25.1098C28.8914 24.0302 28.8914 23.1047 28.7757 22.9118C28.6601 22.7189 28.3506 22.6038 27.8848 22.372H27.8864ZM19.4116 33.8878H19.4053C16.6378 33.8883 13.9212 33.1479 11.5401 31.7442L10.9774 31.4113L5.1285 32.9389L6.68998 27.2642L6.32266 26.6825C4.77547 24.2315 3.95668 21.3948 3.96091 18.5003C3.96403 10.0225 10.8946 3.12517 19.4178 3.12517C23.5443 3.12517 27.4237 4.72739 30.3404 7.63316C31.7789 9.05895 32.9192 10.7545 33.6951 12.6217C34.471 14.4888 34.8671 16.4906 34.8607 18.5111C34.8575 26.9889 27.927 33.8878 19.4116 33.8878ZM32.5599 5.42583C30.8377 3.7006 28.7886 2.33267 26.5314 1.40131C24.2741 0.46994 21.8536 -0.00634082 19.41 6.37428e-05C9.16583 6.37428e-05 0.825446 8.29894 0.82232 18.4987C0.817573 21.7447 1.6732 24.9346 3.30287 27.7465L0.666016 37.3333L10.5194 34.7604C13.2452 36.2384 16.2997 37.0128 19.4038 37.0129H19.4116C29.6557 37.0129 37.9961 28.714 37.9993 18.5127C38.0068 16.0818 37.53 13.6735 36.5963 11.4272C35.6627 9.18088 34.2907 7.14109 32.5599 5.42583Z" fill="#11CA1C"/>
	</symbol>

	<symbol id="header-icon-1" viewBox="0 0 29 29">
		<path d="M21.2832 18.7471C23.0382 16.3519 23.8242 13.3824 23.484 10.4326C23.1439 7.48269 21.7026 4.77006 19.4486 2.83736C17.1946 0.904655 14.294 -0.105587 11.3272 0.00874455C8.36042 0.123076 5.54619 1.35355 3.44755 3.45399C1.3489 5.55444 0.120614 8.36994 0.00842153 11.3372C-0.103771 14.3045 0.908404 17.2048 2.84245 19.4577C4.77649 21.7107 7.48977 23.1502 10.4395 23.4883C13.3891 23.8264 16.3577 23.0381 18.7512 21.2812H18.7494C18.8038 21.3537 18.8618 21.4226 18.927 21.4897L25.9049 28.4685C26.2447 28.8086 26.7058 28.9998 27.1866 29C27.6673 29.0002 28.1285 28.8093 28.4686 28.4694C28.8087 28.1295 28.9998 27.6684 29 27.1876C29.0002 26.7067 28.8093 26.2455 28.4695 25.9054L21.4916 18.9265C21.4268 18.8609 21.3572 18.8003 21.2832 18.7453V18.7471ZM21.7508 11.7791C21.7508 13.0884 21.493 14.3848 20.992 15.5944C20.4911 16.804 19.7568 17.903 18.8311 18.8288C17.9055 19.7546 16.8066 20.489 15.5972 20.99C14.3877 21.491 13.0915 21.7489 11.7824 21.7489C10.4734 21.7489 9.17712 21.491 7.9677 20.99C6.75828 20.489 5.65938 19.7546 4.73373 18.8288C3.80808 17.903 3.07381 16.804 2.57286 15.5944C2.0719 14.3848 1.81406 13.0884 1.81406 11.7791C1.81406 9.13496 2.8643 6.59911 4.73373 4.72941C6.60316 2.85971 9.13866 1.80933 11.7824 1.80933C14.4262 1.80933 16.9617 2.85971 18.8311 4.72941C20.7006 6.59911 21.7508 9.13496 21.7508 11.7791Z"/>
	</symbol>

	<symbol id="header-icon-2" viewBox="0 0 29 28">
		<path d="M14.5003 5.12967L13.2006 3.75395C10.1501 0.524622 4.55657 1.63902 2.53739 5.69901C1.58942 7.6086 1.37554 10.3657 3.10653 13.8843C4.77408 17.2723 8.24331 21.3304 14.5003 25.7507C20.7572 21.3304 24.2246 17.2723 25.894 13.8843C27.625 10.3638 27.4129 7.6086 26.4631 5.69901C24.4439 1.63902 18.8504 0.522756 15.7999 3.75208L14.5003 5.12967ZM14.5003 28C-13.2917 9.08699 5.94318 -5.67456 14.1812 2.13368C14.29 2.23635 14.3969 2.34275 14.5003 2.45288C14.6025 2.34285 14.7089 2.23699 14.8193 2.13555C23.0555 -5.67829 42.2922 9.08513 14.5003 28Z"/>
	</symbol>

	<symbol id="filter-icon" viewBox="0 0 26 23">
		<path d="M22.4545 5.44737C22.4545 8.45587 20.0735 10.8947 17.1364 10.8947C14.1992 10.8947 11.8182 8.45587 11.8182 5.44737C11.8182 2.43887 14.1992 0 17.1364 0C20.0735 0 22.4545 2.43887 22.4545 5.44737ZM14.379 5.44737C14.379 7.0072 15.6135 8.2717 17.1364 8.2717C18.6592 8.2717 19.8937 7.0072 19.8937 5.44737C19.8937 3.88754 18.6592 2.62304 17.1364 2.62304C15.6135 2.62304 14.379 3.88754 14.379 5.44737Z" fill="#012C56"/>
		<path d="M13 17.5526C13 20.5611 10.619 23 7.68182 23C4.74467 23 2.36364 20.5611 2.36364 17.5526C2.36364 14.5441 4.74467 12.1053 7.68182 12.1053C10.619 12.1053 13 14.5441 13 17.5526ZM4.92447 17.5526C4.92447 19.1125 6.15898 20.377 7.68182 20.377C9.20466 20.377 10.4392 19.1125 10.4392 17.5526C10.4392 15.9928 9.20466 14.7283 7.68182 14.7283C6.15898 14.7283 4.92447 15.9928 4.92447 17.5526Z" fill="#012C56"/>
		<path d="M0 3.63158H13V7.26316H0V3.63158Z" fill="#012C56"/>
		<path d="M0 15.7368H4.72727V19.3684H0V15.7368Z" fill="#012C56"/>
		<path d="M21.2727 3.63158H26V7.26316H21.2727V3.63158Z" fill="#012C56"/>
		<path d="M11.8182 15.7368H26V19.3684H11.8182V15.7368Z" fill="#012C56"/>
	</symbol>

	<symbol id="filter-arrow" viewBox="0 0 29 24">
		<path d="M27 13.5C27.8284 13.5 28.5 12.8284 28.5 12C28.5 11.1716 27.8284 10.5 27 10.5L27 13.5ZM0.93934 10.9393C0.353553 11.5251 0.353553 12.4749 0.93934 13.0607L10.4853 22.6066C11.0711 23.1924 12.0208 23.1924 12.6066 22.6066C13.1924 22.0208 13.1924 21.0711 12.6066 20.4853L4.12132 12L12.6066 3.51472C13.1924 2.92893 13.1924 1.97918 12.6066 1.3934C12.0208 0.807611 11.0711 0.80761 10.4853 1.3934L0.93934 10.9393ZM27 10.5L2 10.5L2 13.5L27 13.5L27 10.5Z" fill="#012C56"/>
	</symbol>

</svg>