<svg width="35" height="35" fill="none" xmlns="http://www.w3.org/2000/svg"><circle cx="17.458" cy="17.458" r="17.458" fill="#FF8731"/><path d="M21.684 20.385c-.888.543-2.109.758-2.916.839l.677.642 2.472 2.378c.904.891-.567 2.284-1.48 1.424-.619-.605-1.526-1.477-2.472-2.387l-2.471 2.384c-.914.857-2.384-.549-1.471-1.424.628-.605 1.526-1.478 2.471-2.378l.668-.642c-.797-.081-2.038-.284-2.935-.839-1.056-.654-1.52-1.038-1.111-1.838.24-.456.897-.839 1.769-.178 0 0 1.175.9 3.074.9 1.898 0 3.074-.9 3.074-.9.871-.658 1.525-.277 1.768.178.402.8-.061 1.184-1.117 1.841zm-7.93-6.367c0-2.234 1.889-4.042 4.201-4.042 2.313 0 4.202 1.808 4.202 4.042 0 2.226-1.889 4.033-4.202 4.033-2.312 0-4.2-1.807-4.2-4.033zm2.138 0c0 1.094.926 1.985 2.063 1.985s2.064-.89 2.064-1.985c0-1.103-.927-1.994-2.064-1.994s-2.063.891-2.063 1.994z" fill="#fff"/></svg>