<svg width="35" height="35" fill="none" xmlns="http://www.w3.org/2000/svg"><path d="M17.94 0C8.539 0 .917 7.827.917 17.481c0 7.407 4.485 13.733 10.819 16.278-.15-1.384-.283-3.504.058-5.015.311-1.367 1.997-8.688 1.997-8.688s-.51-1.05-.51-2.597c0-2.425 1.373-4.245 3.079-4.245 1.454 0 2.156 1.121 2.156 2.462 0 1.5-.928 3.743-1.41 5.821-.404 1.74.853 3.158 2.522 3.158 3.022 0 5.35-3.274 5.35-8.002 0-4.173-2.929-7.1-7.111-7.1-4.843 0-7.682 3.735-7.682 7.581 0 1.506.56 3.125 1.263 3.997.14.175.159.328.12.503a410.89 410.89 0 01-.474 1.988c-.075.328-.244.395-.57.24-2.123-1.005-3.455-4.196-3.455-6.775 0-5.506 3.903-10.576 11.248-10.576 5.905 0 10.498 4.327 10.498 10.097 0 6.03-3.703 10.882-8.852 10.882-1.724 0-3.343-.918-3.917-2.011l-1.064 4.153c-.382 1.524-1.426 3.43-2.127 4.588 1.595.503 3.275.78 5.041.78 9.383 0 17.021-7.824 17.021-17.481 0-9.659-7.638-17.481-17.02-17.481L17.94 0z" fill="#E40707"/></svg>