<svg width="36" height="35" fill="none" xmlns="http://www.w3.org/2000/svg"><path fill-rule="evenodd" clip-rule="evenodd" d="M35.916 17.5c0 9.664-7.836 17.5-17.5 17.5S.916 27.164.916 17.5 8.752 0 18.416 0s17.5 7.836 17.5 17.5zm-16.873-4.58c-1.702.707-5.104 2.172-10.205 4.395-.829.33-1.263.652-1.303.967-.067.533.601.743 1.508 1.028.124.04.253.079.384.122.894.29 2.096.63 2.72.643.567.012 1.2-.221 1.898-.7 4.766-3.218 7.226-4.844 7.381-4.88.11-.024.261-.056.363.036.102.09.092.262.082.309-.067.281-2.683 2.715-4.04 3.975-.423.393-.722.671-.783.735-.137.142-.277.277-.411.407-.831.8-1.453 1.4.035 2.38.714.471 1.286.86 1.856 1.249.623.424 1.244.847 2.05 1.375.203.134.399.273.59.408.725.518 1.377.982 2.182.909.466-.044.95-.483 1.195-1.794.58-3.1 1.72-9.815 1.984-12.583a3.08 3.08 0 00-.03-.688.738.738 0 00-.25-.474c-.209-.17-.533-.207-.678-.204-.658.012-1.667.363-6.528 2.384z" fill="#2CA5E0"/></svg>