<svg width="36" height="35" fill="none" xmlns="http://www.w3.org/2000/svg"><path d="M.923 35l2.366-8.694A17.42 17.42 0 01.916 17.5C.916 7.835 8.751 0 18.416 0s17.5 7.835 17.5 17.5S28.081 35 18.416 35a17.42 17.42 0 01-8.802-2.371L.923 35zM12.1 9.289a1.683 1.683 0 00-.649.175c-.19.107-.363.242-.514.399-.21.198-.33.37-.457.536a4.776 4.776 0 00-.989 2.936c.004.857.228 1.692.578 2.473.715 1.578 1.893 3.25 3.449 4.798.374.373.74.747 1.134 1.096a16.533 16.533 0 006.72 3.58l.995.152c.324.018.648-.007.973-.022a3.483 3.483 0 001.458-.404c.23-.119.453-.247.67-.386 0 0 .076-.049.22-.157.236-.175.38-.3.577-.504a2 2 0 00.367-.528c.137-.286.273-.83.33-1.283.041-.347.029-.536.024-.653-.007-.187-.163-.381-.333-.464l-1.018-.457s-1.523-.663-2.452-1.086a.871.871 0 00-.31-.072.844.844 0 00-.661.222v-.003c-.009 0-.126.1-1.392 1.633a.612.612 0 01-.643.227 2.48 2.48 0 01-.335-.116c-.217-.09-.292-.125-.44-.19l-.01-.004a10.518 10.518 0 01-2.747-1.75c-.22-.192-.425-.402-.635-.605a11.016 11.016 0 01-1.785-2.22l-.104-.165a1.617 1.617 0 01-.178-.36c-.066-.256.107-.463.107-.463s.425-.466.623-.718c.164-.209.318-.427.46-.652.207-.333.271-.674.163-.938-.49-1.197-.998-2.389-1.52-3.572-.102-.235-.409-.403-.687-.436a7.767 7.767 0 00-.284-.028 5.926 5.926 0 00-.705.007v.002z" fill="#11CA1C"/></svg>