<svg width="17" height="14" fill="none" xmlns="http://www.w3.org/2000/svg"><path d="M6.212 14a.98.98 0 01-.423-.098 1.067 1.067 0 01-.351-.274l-5.15-6.01A1.23 1.23 0 010 6.785c.008-.308.129-.6.334-.812a1.01 1.01 0 01.76-.314c.28.01.547.142.74.367L6.2 11.129 15.114.435c.09-.124.203-.226.33-.3a.972.972 0 01.837-.073c.138.051.263.132.37.239.108.106.194.235.254.38a1.257 1.257 0 01.016.92c-.054.147-.136.28-.239.391L6.996 13.616a1.07 1.07 0 01-.35.28.982.982 0 01-.424.104h-.01z" fill="#012C56"/></svg>