<svg width="34" height="30" fill="none" xmlns="http://www.w3.org/2000/svg"><path d="M17.694.246a1.132 1.132 0 00-1.408 0L0 13.176l1.409 1.813L3.4 13.41v14.283a2.33 2.33 0 00.665 1.63c.425.433 1 .677 1.602.678h22.666a2.25 2.25 0 001.602-.677 2.334 2.334 0 00.665-1.63V13.418l1.991 1.58L34 13.187 17.694.246zm1.573 27.446h-4.534v-9.23h4.534v9.23zm2.266 0v-9.23c0-.613-.24-1.2-.664-1.632a2.249 2.249 0 00-1.602-.676h-4.534c-.6 0-1.177.244-1.602.676a2.331 2.331 0 00-.664 1.631v9.231h-6.8V11.61L17 2.62l11.333 9v16.071h-6.8z" fill="#fff"/></svg>