<svg width="14" height="11" fill="none" xmlns="http://www.w3.org/2000/svg"><path d="M5.138 5.5c0 .501.189.982.526 1.336.337.354.795.554 1.272.554s.934-.2 1.271-.554A1.94 1.94 0 008.734 5.5c0-.501-.19-.982-.527-1.336a1.755 1.755 0 00-1.271-.554c-.477 0-.935.2-1.272.554A1.94 1.94 0 005.138 5.5zm8.77-.435C12.384 1.695 10.083 0 7 0 3.914 0 1.615 1.696.093 5.066a1.06 1.06 0 000 .87C1.615 9.303 3.916 11 7 11c3.086 0 5.385-1.696 6.907-5.066.124-.274.124-.59 0-.87zM6.935 8.469C5.376 8.47 4.11 7.14 4.11 5.5s1.265-2.97 2.826-2.97c1.56 0 2.826 1.33 2.826 2.97 0 1.64-1.266 2.97-2.826 2.97z" fill="#818181"/></svg>