<svg width="40" height="16" fill="none" xmlns="http://www.w3.org/2000/svg"><path d="M6.496 0H4.393C2.289 0 .48 1.6.48 4.7c0 1.85.88 3.25 2.396 3.95L.04 13.85c-.097.15 0 .3.147.3h1.32c.099 0 .196-.05.245-.15l2.593-5.1h.929V14c0 .05.049.15.147.15h1.174c.097 0 .146-.05.146-.15V.2c-.05-.15-.099-.2-.245-.2zM4.49 7.7c-3.375 0-3.13-6.5-.146-6.5h.978v6.5H4.49z" fill="red"/><path d="M13.539 4.7h-1.174c-.098 0-.147.05-.147.15v3.6h-2.152v-3.6c0-.1-.049-.15-.146-.15H8.795c-.098 0-.147.05-.147.15V14c0 .1.049.15.147.15h1.173c.098 0 .147-.05.147-.15V9.6h2.152V14c0 .1.05.15.147.15h1.174c.098 0 .147-.05.147-.15V4.85c-.05-.1-.098-.15-.196-.15zm26.412 8.2c0-.05-.049-.05-.098-.05-.489 0-3.472 1.45-3.472-3.35 0-2.1.782-5.05 2.64-3.3.05.05.099.05.148.05.049 0 .097-.05.146-.15l.49-.85c.048-.05.048-.1.048-.15 0-.1-.098-.15-.195-.2-3.228-1.65-4.891 1.4-4.891 4.95 0 4.6 3.277 5.25 5.135 3.85.098-.05.098-.15.098-.2l-.049-.6zM31.93 8.95l2.25-4.15c.048-.05 0-.15-.05-.15h-1.124c-.343 0-.44.1-.538.35-.098.25-1.761 3.8-1.957 3.95V4.8c0-.05-.049-.15-.098-.15h-1.222c-.05 0-.098.05-.098.15V14c0 .05.049.15.098.15h1.222c.098 0 .098-.05.098-.15V9.25c.147.1 2.201 4.45 2.25 4.6.098.2.294.3.538.3h1.223c.098 0 .098-.05.049-.15L31.93 8.95zm-10.712 4h-.244c-.294 0-.343-.1-.343-.35V4.8c0-.1-.049-.15-.098-.15h-3.766c-.098 0-.147.05-.147.15 0 2.1.05 5.6-1.32 8.15h-.392c-.097 0-.146.05-.146.15v2.75c0 .1.098.15.146.15h.88c.197 0 .294-.15.294-.3v-1.55h3.962v1.7c0 .05.05.15.147.15h.978c.098 0 .245-.1.245-.3v-2.6c-.05-.1-.098-.15-.196-.15zm-2.054 0h-2.74c.783-1.3 1.517-3.4 1.517-7.1h1.223v7.1zm5.87-8.5c-2.006 0-2.935 2.55-2.935 5.35 0 4.6 3.13 5.3 5.282 3.95.098-.05.098-.1.098-.15l-.147-.65c0-.05-.049-.1-.147-.1-.782 0-3.521 1.4-3.521-3.15.978.1.978.1 3.912.1-.048-2.3-.293-5.35-2.543-5.35zm-1.321 4.2c0-3.65 2.347-4.35 2.347-.1-1.027 0-1.467 0-2.347.1z" fill="#000"/></svg>