<svg width="22" height="18" fill="none" xmlns="http://www.w3.org/2000/svg"><path d="M5.004 2.26v1.011h-.86c-.91 0-1.782.345-2.425.959A3.2 3.2 0 00.715 6.544v5.728a2.4 2.4 0 00.753 1.736c.482.46 1.136.719 1.818.719h1.715v.818a2.4 2.4 0 00.753 1.736c.482.46 1.136.719 1.818.719h6.857c.682 0 1.336-.259 1.818-.719a2.4 2.4 0 00.754-1.736v-.818h1.714c.682 0 1.336-.259 1.818-.719a2.4 2.4 0 00.753-1.736V6.544a3.2 3.2 0 00-1.004-2.314 3.513 3.513 0 00-2.424-.959H17v-1.02c0-.297-.062-.59-.18-.863a2.247 2.247 0 00-.512-.73 2.368 2.368 0 00-.766-.488A2.455 2.455 0 0014.64 0L7.358.01a2.433 2.433 0 00-1.665.66 2.2 2.2 0 00-.689 1.59zM17.001 13.5v-2.046a2.4 2.4 0 00-.754-1.736A2.635 2.635 0 0014.43 9H7.572c-.682 0-1.336.259-1.818.72A2.4 2.4 0 005 11.453V13.5H3.286c-.34 0-.668-.13-.909-.36a1.2 1.2 0 01-.376-.868V6.544a2 2 0 01.627-1.446c.402-.384.947-.6 1.515-.6h13.715c.568 0 1.113.216 1.515.6A2 2 0 0120 6.544v5.728a1.2 1.2 0 01-.377.868c-.241.23-.568.36-.91.36H17zM15.715 2.25v1.021H6.29v-1.01c0-.565.478-1.022 1.07-1.023l7.282-.01a1.115 1.115 0 01.758.298c.1.095.18.208.233.332a.982.982 0 01.082.392zm-8.143 7.977h6.857c.341 0 .668.129.91.36a1.2 1.2 0 01.376.867v4.091a1.2 1.2 0 01-.377.868c-.24.23-.568.36-.909.36H7.572c-.341 0-.668-.13-.91-.36a1.2 1.2 0 01-.376-.868v-4.091a1.2 1.2 0 01.377-.868c.241-.23.568-.36.909-.36z" fill="#fff"/></svg>