<svg width="15" height="15" fill="none" xmlns="http://www.w3.org/2000/svg"><rect width="15" height="15" rx="1" fill="#012C56"/><path d="M9.3 7.5a.463.463 0 01-.132.324.446.446 0 01-.636 0 .463.463 0 010-.649.446.446 0 01.636 0A.463.463 0 019.3 7.5zM7.138 2.009a.442.442 0 00-.373.095.457.457 0 00-.165.354v10.084a.465.465 0 00.165.354.449.449 0 00.373.095l4.5-.917a.449.449 0 00.26-.159.464.464 0 00.102-.29v-8.25a.464.464 0 00-.102-.29.449.449 0 00-.26-.16l-4.5-.916zm.362 9.974V3.018l3.6.733v7.498l-3.6.733zm-1.8.1v-.917H3.9V3.834h1.8v-.917H3.45a.446.446 0 00-.318.134.463.463 0 00-.132.324v8.25c0 .121.047.238.132.324a.446.446 0 00.318.134H5.7z" fill="#fff"/></svg>