<svg width="15" height="15" fill="none" xmlns="http://www.w3.org/2000/svg"><path d="M4.125 10.125h6.75v.563c0 .162.053.296.159.403a.548.548 0 00.403.159.548.548 0 00.404-.159.548.548 0 00.159-.403v-2.55c0-.375-.103-.71-.31-1.004a1.808 1.808 0 00-.815-.647V5.25a1.45 1.45 0 00-.44-1.06 1.446 1.446 0 00-1.06-.44h-3.75c-.412 0-.766.147-1.059.44a1.445 1.445 0 00-.441 1.06v1.237c-.337.138-.61.353-.816.647A1.706 1.706 0 003 8.137v2.55a.547.547 0 00.563.563.546.546 0 00.562-.563v-.562zm1.125-3.75v-1.5h4.5v1.5h-4.5zM4.125 9v-.863c0-.175.063-.325.188-.45a.614.614 0 01.45-.187h5.475c.175 0 .325.063.45.188a.614.614 0 01.187.45V9h-6.75zM1.5 15c-.413 0-.765-.147-1.059-.44A1.445 1.445 0 010 13.5v-12C0 1.087.147.734.441.44.735.147 1.087 0 1.5 0h12c.412 0 .766.147 1.06.44.293.294.44.647.44 1.06v12c0 .412-.147.766-.44 1.06a1.45 1.45 0 01-1.06.44h-12z" fill="#012C56"/></svg>