<svg width="15" height="15" fill="none" xmlns="http://www.w3.org/2000/svg"><rect width="15" height="15" rx="1" fill="#012C56"/><path d="M11.67 2.63a1.573 1.573 0 00-.55-.465A1.522 1.522 0 0010.427 2h-.25l-1.13 4.5H3v.667c0 .968.376 1.836 1.058 2.443.645.574 1.531.89 2.494.89h.77L7.16 12h4.074V6.876l.715-2.846a1.662 1.662 0 00-.279-1.4zm-1.082 8.703H7.881l.162-1.5H6.552c-1.711 0-2.906-1.096-2.906-2.666h6.942v4.166zm.736-7.47L10.66 6.5h-.947l.954-3.8a.932.932 0 01.56.442.984.984 0 01.096.721z" fill="#fff"/></svg>