<svg width="16" height="14" fill="none" xmlns="http://www.w3.org/2000/svg"><path d="M7.816 1.22C8.704.449 9.903.01 11.156 0c1.253-.01 2.461.409 3.366 1.166.905.758 1.434 1.795 1.475 2.89.042 1.094-.409 2.16-1.254 2.967l-.151.138-7.04 6.15-.028.02A3.23 3.23 0 015.527 14a3.232 3.232 0 01-1.995-.674c-.547-.432-.89-1.027-.964-1.668a2.367 2.367 0 01.564-1.802.53.53 0 01.068-.091l.044-.042.07-.062.112-.103.002.002 5.948-5.21a.664.664 0 01.78-.052l.068.051a.499.499 0 01.175.332.48.48 0 01-.115.35l-.058.059-6.075 5.321a1.434 1.434 0 00-.399 1.072c.025.389.216.755.534 1.027.318.272.74.43 1.185.444a1.95 1.95 0 001.219-.371l7.065-6.172c.655-.582 1.025-1.363 1.033-2.18.008-.815-.347-1.602-.99-2.193-.643-.592-1.524-.942-2.457-.977-.933-.035-1.845.248-2.544.79l-.134.112-.01.01-7.628 6.665a.644.644 0 01-.403.154.656.656 0 01-.414-.127.477.477 0 01-.09-.71l.059-.059 7.638-6.675z" fill="#818181"/></svg>